<svg viewBox="0 0 24 24" xmlns="http://www.w3.org/2000/svg"><defs><style>.c{fill:#fff;}.d{fill:#232323;}</style></defs><g id="a"><rect height="24" width="24" class="d"></rect></g><g id="b"><g><path d="M10.67,16.67c0,1.11,.87,2,2,2h5.33c1.13,0,2-.89,2-2V7.33c0-1.11-.87-2-2-2h-5.33c-1.13,0-2,.89-2,2v9.33Zm2,.67c-.4,0-.67-.3-.67-.67V7.33c0-.37,.27-.67,.67-.67h5.33c.4,0,.67,.3,.67,.67v9.33c0,.37-.27,.67-.67,.67h-5.33Z" class="c"></path><path d="M16.13,8.83c0-.46-.33-.83-.8-.83s-.8,.37-.8,.83,.33,.83,.8,.83,.8-.37,.8-.83Z" class="c"></path><path d="M15.33,14.67c-.53,0-1-.45-1-1s.47-1,1-1,1,.45,1,1-.47,1-1,1Zm-2.33-1c0,1.29,1.07,2.33,2.33,2.33s2.33-1.05,2.33-2.33-1.07-2.33-2.33-2.33-2.33,1.05-2.33,2.33Z" class="c"></path><path d="M4,6.67c0-.73,.6-1.33,1.33-1.33h3.33v1.33h-3.33v7.33h3.33v1.33h-3.33c-.73,0-1.33-.6-1.33-1.33V6.67Zm4.67,12h-2v-1.33h2v1.33Z" class="c"></path></g></g></svg>